# xmcd
#
# Track frame offsets:
#	150
#	13656
#	27272
#	40617
#	54279
#	67801
#	81290
#	94436
#	108339
#	121826
#	135317
#	148659
#	162491
#	175769
#	189099
#	202768
#	216331
#	229714
#	243293
#
# Disc length: 3521 seconds
#
# Revision: 0
# Processed by: cddbd v1.5.2PL0 Copyright (c) Steve Scherf et al.
# Submitted via: EZCDAudioConverter 3.1.7.1
#
DISCID=f20dbf13
DTITLE=David Walliams - Awful Auntie
DYEAR=2014
DGENRE=Books and Spoken
TTITLE0=Disc 5 Track 1
TTITLE1=Disc 5 Track 2
TTITLE2=Disc 5 Track 3
TTITLE3=Disc 5 Track 4
TTITLE4=Disc 5 Track 5
TTITLE5=Disc 5 Track 6
TTITLE6=Disc 5 Track 7
TTITLE7=Disc 5 Track 8
TTITLE8=Disc 5 Track 9
TTITLE9=Disc 5 Track 10
TTITLE10=Disc 5 Track 11
TTITLE11=Disc 5 Track 12
TTITLE12=Disc 5 Track 13
TTITLE13=Disc 5 Track 14
TTITLE14=Disc 5 Track 15
TTITLE15=Disc 5 Track 16
TTITLE16=Disc 5 Track 17
TTITLE17=Disc 5 Track 18
TTITLE18=Disc 5 Track 19
EXTD=
EXTT0=
EXTT1=
EXTT2=
EXTT3=
EXTT4=
EXTT5=
EXTT6=
EXTT7=
EXTT8=
EXTT9=
EXTT10=
EXTT11=
EXTT12=
EXTT13=
EXTT14=
EXTT15=
EXTT16=
EXTT17=
EXTT18=
PLAYORDER=
